<?xml version="1.0" standalone="no"?>
<!DOCTYPE svg PUBLIC "-//W3C//DTD SVG 20010904//EN"
 "http://www.w3.org/TR/2001/REC-SVG-20010904/DTD/svg10.dtd">
<svg version="1.0" xmlns="http://www.w3.org/2000/svg"
 width="260.000000pt" height="260.000000pt" viewBox="0 0 260.000000 260.000000"
 preserveAspectRatio="xMidYMid meet">
<metadata>
Created by potrace 1.11, written by Peter Selinger 2001-2013
</metadata>
<g transform="translate(0.000000,260.000000) scale(0.100000,-0.100000)"
fill="#000000" stroke="none">
<path d="M0 1300 l0 -1300 1300 0 1300 0 0 1300 0 1300 -1300 0 -1300 0 0
-1300z m855 722 c44 -5 132 -5 195 -1 307 21 422 22 510 5 153 -31 248 -96
298 -204 37 -78 38 -201 3 -280 -28 -63 -110 -141 -175 -168 -45 -19 -60 -34
-32 -34 35 0 176 -83 218 -128 68 -73 91 -142 86 -268 -3 -89 -7 -108 -36
-165 -58 -119 -170 -202 -332 -246 -56 -16 -97 -17 -290 -14 -311 6 -478 6
-592 1 -115 -6 -133 4 -133 71 0 62 21 72 123 64 96 -8 124 4 148 60 21 51 21
1069 0 1120 -24 57 -50 67 -154 59 -89 -7 -90 -7 -107 20 -24 37 -13 91 23
111 28 16 59 16 247 -3z"/>
<path d="M1155 1889 c-112 -16 -132 -66 -123 -311 7 -181 -4 -173 226 -173
157 0 185 3 250 23 132 41 189 123 180 259 -7 109 -78 179 -207 203 -63 12
-240 11 -326 -1z"/>
<path d="M1092 1249 c-58 -17 -65 -50 -60 -289 5 -295 9 -299 253 -307 320
-11 460 73 482 292 16 156 -90 277 -267 305 -80 12 -363 12 -408 -1z"/>
</g>
</svg>
